Patient4_TMGait_0pt6_01_right_41_EMG.mot
version=1
nRows=13
nColumns=33
inDegrees=no
endheader
time	1LAddLong	2LGlutMax	3LGlutMed	4LIliopsoas	5LSemiMemb	6LBicFemLong	7LRecFem	8LVastMed	9LVastLat	10LGasMed	11LTibAnt	12lTibPost	13LPeroneusLong	14LSol	15LExtDigLong	16LFlexDigLong	17RAddLong	18RGlutMax	19RGlutMed	20RIliopsoas	21RSemiMemb	22RBicFemLong	23RRecFem	24RVastMed	25RVastLat	26RGasMed	27RTibAnt	28RTibPost	29RPeroneusLong	30RSol	31RExtDigLong	32RFlexDigLong
49.722	-0.0177	-0.037384	-0.23636	0.030365	0.004578	-0.010986	0.31097	0.033722	0.091553	0.070953	-0.015106	-0.000916	-0.13596	-0.01709	0.28793	-0.006866	0.035553	-0.15259	0.1741	0.14175	-0.038757	-0.87158	0.33386	-0.14771	-0.10422	0.09903	-0.046997	0.27557	3.0782	-0.19836	0.005188	-0.007172
49.723	-0.017548	0.069122	-0.20325	0.002899	0.005341	-0.011139	0.30701	0.032654	0.097198	0.042267	-0.16754	-0.009003	-0.093842	0.16449	0.20493	-0.018768	0.024261	-0.1976	0.11169	0.23361	-0.18188	-0.74554	0.41061	-0.018158	-0.14908	0.063019	0.081177	0.1181	0.22034	0.24582	0.001068	-0.010223
49.724	-0.014954	0.15869	-0.18951	0.001831	0.007172	-0.006104	0.30395	0.037384	0.078735	0.041199	-0.099182	-0.007324	-0.12589	0.25146	0.083466	-0.022278	0.032196	-0.21332	-0.31937	0.19287	-0.34775	-0.53238	0.35263	-0.052948	-0.16037	0.059052	0.031738	0.000153	0.76904	0.20325	-0.001831	-0.011597
49.725	-0.005341	0.25467	-0.23041	-0.018005	-0.002136	-0.007629	0.30777	0.031433	0.06485	0.058899	-0.014343	-0.00946	-0.17334	0.25559	-0.083771	-0.014648	0.082855	-0.31189	-0.20966	0.14816	-0.55786	-0.33981	0.29098	-0.12848	0.0177	0.027771	-0.03952	-0.07431	0.16785	0.11383	-0.001526	-0.002289
49.726	-0.016327	0.37277	-0.32059	-0.002899	0.00473	-0.028992	0.23514	0.035095	0.05661	0.058746	0.026703	-0.007782	-0.19104	0.20157	0.049438	-0.016632	0.080414	-0.33966	-0.04776	0.009918	-0.49118	-0.17868	0.32898	-0.078125	0.10208	0.005798	-0.059662	-0.04364	-1.067	0.4599	-0.001678	0.001068
49.727	-0.016022	0.48035	-0.31326	-0.003052	0.000916	-0.002899	0.14282	0.041046	0.051422	0.05188	-0.063782	-0.001678	-0.12283	0.16876	-0.010376	-0.014954	0.10162	-0.43457	0.059357	-0.014038	-0.22537	-0.37582	0.34592	-0.10834	0.009155	-0.00946	0.093079	-0.012665	-0.99365	0.47546	-0.000916	-0.014496
49.728	-0.012817	0.58304	-0.28503	-0.023499	0.004883	-0.002136	0.028687	0.032196	0.055695	0.061798	0.03479	-0.013428	-0.054016	-0.058289	-0.23926	-0.030212	0.000458	-0.53955	0.47379	-0.035248	0.14038	-0.34698	0.30228	0.029144	-0.053406	-0.019226	0.46631	-0.017548	-0.77927	0.23636	-0.002441	-0.011749
49.729	-0.011902	0.6842	-0.25116	-0.013123	0.001678	0.003204	-0.056	0.038147	0.059052	0.074768	0.13947	-0.003815	-0.093536	-0.10574	0.36636	-0.009003	-0.16144	-0.60135	0.62958	-0.009155	-0.69733	-0.10376	0.20767	0.30106	-0.03952	-0.013123	0.3122	-0.028839	1.4897	-0.040741	-0.001984	-0.016785
49.73	-0.00946	0.78552	-0.20981	-0.005798	0.00946	-0.00473	-0.017853	0.034943	0.061798	0.067596	0.23346	-0.010834	-0.13031	-0.078888	0.064392	-0.010834	-0.1918	-0.73425	0.29159	-0.055695	-0.69824	-0.14877	0.23468	0.41168	-0.053558	-0.015106	-0.047607	-0.028381	2.3804	-0.11612	-0.000916	-0.011597
49.731	-0.006409	0.87585	-0.18616	-0.019226	0.007477	-0.018921	0.098877	0.023651	0.064545	0.068054	0.18249	0.003662	-0.12253	-0.036469	0.15305	-0.011139	-0.13016	-0.8432	-0.11368	-0.14191	0.28305	-0.28549	0.20004	0.39032	-0.04364	0.004883	-0.37766	-0.019989	1.5562	-0.20691	-0.001678	-0.009003
49.732	-0.002747	0.94025	-0.25787	-0.027771	0.01236	-0.02533	0.24063	0.02594	0.052795	0.056763	0.046082	-0.025024	-0.10529	0.037079	0.011902	0.002747	-0.07019	-0.83496	-0.26764	-0.28183	0.29724	-0.25421	0.1442	0.42496	0.015106	0.028229	-0.51254	-0.022125	1.3152	-0.29358	-0.000916	0.013275
49.733	-0.010376	0.98084	-0.26245	-0.011902	0.01236	-0.020599	0.26596	0.006256	0.044708	0.05127	-0.1416	-0.002594	-0.048828	0.072021	-0.28015	-0.018311	-0.05127	-0.91568	-0.4187	-0.22766	0.33463	-0.22263	0.19669	0.3186	0.00351	0.033417	-0.10468	-0.015106	-0.53879	-0.18967	-0.002441	0.014496
49.734	-0.007782	0.99564	-0.27329	-0.012054	0.014343	-0.015106	0.30746	0.000305	0.029755	0.064392	-0.13016	0.004578	-0.048523	0.00061	-0.29419	-0.012207	-0.007172	-1.0251	-0.54138	-0.024719	0.53345	-0.42954	0.22293	0.11383	-0.063171	0.018158	0.24124	-0.016937	-2.6112	0.024719	-0.001831	0.006409
